#!OML:ASF E:\emotionWalksFemale\Project 1\Capture day 1\Session 1\Female1.ASF
:FULLY-SPECIFIED
:DEGREES
362
root 7.93313 15.6715 8.38532 -180.631 1.67123 -183.757
lowerback 8.74827 1.48636 -3.0545
upperback -3.36294 1.5499 -2.07347
thorax -8.50943 0.894957 -0.734452
lowerneck -5.23376 -2.12754 -4.79605
upperneck 8.46488 -2.84136 3.18153
head 3.83955 -1.47437 1.77041
rclavicle -2.60905e-015 -1.19271e-014
rhumerus -37.8216 13.3631 -93.1926
rradius 34.0529
rwrist 16.2805
rhand -2.35489 -52.8745
rfingers 7.12502
rthumb 23.333 -81.4804
lclavicle -2.60905e-015 -1.19271e-014
lhumerus -39.5118 -5.2115 86.611
lradius 35.7464
lwrist -9.84606
lhand -8.57947 -36.4433
lfingers 7.12502
lthumb 17.3512 -7.19784
rfemur -14.3508 -7.07297 18.5067
rtibia 70.469
rfoot 6.14291 -11.152
rtoes 8.07528
lfemur -6.7275 -15.6901 -30.9274
ltibia 13.5547
lfoot -10.356 23.4029
ltoes -14.5173
363
root 7.92958 15.6723 8.27541 -180.537 1.33037 -183.699
lowerback 8.66137 1.40449 -2.98144
upperback -3.34289 1.45321 -2.07006
thorax -8.43354 0.843461 -0.752738
lowerneck -5.10347 -2.11167 -4.86651
upperneck 8.48257 -2.83831 3.32588
head 3.8255 -1.47226 1.83299
rclavicle -1.23619e-014 2.38542e-014
rhumerus -37.7647 12.5892 -92.9069
rradius 33.9242
rwrist 15.9254
rhand -2.81782 -52.7479
rfingers 7.12502
rthumb 22.8888 -81.4094
lclavicle -1.23619e-014 2.38542e-014
lhumerus -38.8398 -5.17668 86.4584
lradius 35.2256
lwrist -10.7897
lhand -8.099 -36.191
lfingers 7.12502
lthumb 17.8136 -6.98688
rfemur -15.6543 -7.22726 18.7117
rtibia 70.8256
rfoot 4.32047 -11.5661
rtoes 7.77656
lfemur -6.41162 -15.8773 -31.0321
ltibia 13.7242
lfoot -10.8712 23.3428
ltoes -15.915
364
root 7.92973 15.6754 8.16695 -180.489 0.961778 -183.673
lowerback 8.34255 1.32927 -3.04968
upperback -3.11288 1.36376 -2.03325
thorax -8.00101 0.799084 -0.64499
lowerneck -5.11451 -2.18074 -4.86381
upperneck 8.36037 -2.92648 3.36278
head 3.78979 -1.51117 1.83992
rclavicle -1.07592e-014 1.37161e-014
rhumerus -37.4788 12.1056 -92.5628
rradius 33.9912
rwrist 15.4831
rhand -2.95187 -52.7014
rfingers 7.12502
rthumb 22.7602 -81.3789
lclavicle -1.07592e-014 1.37161e-014
lhumerus -37.8446 -5.06295 86.3207
lradius 34.7081
lwrist -11.8177
lhand -7.86675 -35.9591
lfingers 7.12502
lthumb 18.037 -6.77548
rfemur -16.8236 -7.40409 18.9312
rtibia 70.9852
rfoot 2.65637 -12.0802
rtoes 6.82036
lfemur -6.02032 -15.8917 -31.1595
ltibia 13.9059
lfoot -11.6046 23.0457
ltoes -16.0805
365
root 7.93056 15.6722 8.06413 -180.381 0.412117 -183.716
lowerback 8.59844 1.12381 -3.15218
upperback -3.2026 1.06446 -2.00453
thorax -8.2452 0.661685 -0.520101
lowerneck -5.17789 -2.18757 -4.89748
upperneck 8.62445 -2.94345 3.34518
head 3.8968 -1.52644 1.84013
rclavicle -3.85145e-015 1.74931e-014
rhumerus -37.7195 11.6755 -92.3237
rradius 34.1035
rwrist 15.5547
rhand -3.15762 -52.6767
rfingers 7.12502
rthumb 22.5627 -81.3782
lclavicle -3.85145e-015 1.74931e-014
lhumerus -37.3057 -4.69541 86.1146
lradius 34.1946
lwrist -13.0803
lhand -7.97052 -35.8862
lfingers 7.12502
lthumb 17.9372 -6.69338
rfemur -17.9729 -7.5851 19.0942
rtibia 71.0074
rfoot 0.863347 -12.7393
rtoes 6.90151
lfemur -5.75904 -15.8925 -31.3292
ltibia 14.1129
lfoot -12.3371 22.6662
ltoes -15.4198
366
root 7.93103 15.6625 7.9594 -180.332 -0.0816612 -183.767
lowerback 8.81393 1.0071 -3.27117
upperback -3.22476 0.70789 -1.94738
thorax -8.39559 0.422821 -0.33069
lowerneck -5.17418 -2.0963 -5.01515
upperneck 8.73728 -2.82521 3.41899
head 3.93521 -1.47186 1.89366
rclavicle 5.24295e-015 -1.37161e-014
rhumerus -37.8112 11.3338 -92.0826
rradius 34.1952
rwrist 15.6409
rhand -3.15755 -53.2121
rfingers 7.12502
rthumb 22.5628 -81.9136
lclavicle 5.24295e-015 -1.37161e-014
lhumerus -36.8304 -4.24557 85.8779
lradius 33.7998
lwrist -14.3029
lhand -7.89004 -35.9923
lfingers 7.12502
lthumb 18.0146 -6.8066
rfemur -19.0444 -7.56058 19.2229
rtibia 70.8695
rfoot -0.993323 -13.2331
rtoes 8.64898
lfemur -5.51167 -16.0747 -31.5358
ltibia 14.4481
lfoot -13.1025 22.6184
ltoes -15.7498
367
root 7.93193 15.6528 7.85265 -180.375 -0.361034 -183.69
lowerback 8.84392 0.903111 -3.30515
upperback -3.12827 0.576931 -1.88392
thorax -8.30684 0.363703 -0.222372
lowerneck -5.02746 -2.05277 -4.94994
upperneck 8.6246 -2.77877 3.44434
head 3.86291 -1.44597 1.89256
rclavicle -7.11898e-015 4.31363e-014
rhumerus -37.6776 10.7777 -91.7898
rradius 34.114
rwrist 15.7799
rhand -3.24041 -53.2873
rfingers 7.12502
rthumb 22.4832 -81.9985
lclavicle -7.11898e-015 4.31363e-014
lhumerus -36.1015 -3.85154 85.6185
lradius 33.3042
lwrist -15.6699
lhand -7.51813 -36.0168
lfingers 7.12502
lthumb 18.3724 -6.86438
rfemur -20.059 -7.3762 19.503
rtibia 70.5439
rfoot -2.54305 -13.6189
rtoes 9.57197
lfemur -5.22875 -16.251 -31.6305
ltibia 14.9707
lfoot -13.9356 22.6671
ltoes -16.4962
368
root 7.93122 15.6453 7.74536 -180.357 -0.610139 -183.576
lowerback 8.74548 0.87251 -3.27103
upperback -3.04374 0.555115 -1.8442
thorax -8.15733 0.352328 -0.193119
lowerneck -4.97095 -2.12658 -4.60659
upperneck 8.68242 -2.89171 3.19146
head 3.8622 -1.50325 1.73827
rclavicle 1.54058e-015 -1.13307e-014
rhumerus -37.605 9.95624 -91.4273
rradius 34.008
rwrist 16.017
rhand -3.58284 -52.9272
rfingers 7.12502
rthumb 22.1545 -81.6778
lclavicle 1.54058e-015 -1.13307e-014
lhumerus -35.2854 -3.58792 85.4688
lradius 32.7684
lwrist -17.0457
lhand -7.05169 -35.4712
lfingers 7.12502
lthumb 18.8211 -6.36179
rfemur -21.0916 -7.22301 19.8428
rtibia 70.0396
rfoot -4.04322 -14.1233
rtoes 8.66649
lfemur -5.07583 -16.3007 -31.6708
ltibia 15.599
lfoot -14.6885 22.5965
ltoes -17.0686
